<?xml version="1.0" encoding="utf-8"?>
<!-- Generator: Adobe Illustrator 23.0.5, SVG Export Plug-In . SVG Version: 6.00 Build 0)  -->
<svg version="1.1" id="Layer_1" xmlns="http://www.w3.org/2000/svg" xmlns:xlink="http://www.w3.org/1999/xlink" x="0px" y="0px"
	 viewBox="0 0 638.3 322.7" style="enable-background:new 0 0 638.3 322.7;" xml:space="preserve">
<style type="text/css">
	.st0{fill:#C9C9C9;}
	.st1{fill:#CECECE;}
	.st2{fill:#FFFFFF;}
	.st3{fill:none;stroke:#1F3969;stroke-width:4;stroke-linecap:round;stroke-linejoin:round;stroke-miterlimit:10;}
	.st4{fill:#FF3E3E;}
	
		.st5{opacity:0.28;fill:#1F3969;stroke:#1F3969;stroke-width:4;stroke-linecap:round;stroke-linejoin:round;stroke-miterlimit:10;enable-background:new    ;}
	.st6{fill:#50B56F;}
	.st7{fill:#5F5AFF;}
	.st8{fill:#F6F9FD;}
	.st9{fill:#BFCFE2;}
	.st10{fill:#2D425E;}
	.st11{fill:#D0DDF0;}
	.st12{fill:#2AA1FF;}
	
		.st13{opacity:0.34;fill:none;stroke:#FFFFFF;stroke-width:2;stroke-linecap:round;stroke-linejoin:round;stroke-miterlimit:10;enable-background:new    ;}
	.st14{opacity:0.34;}
	.st15{fill:none;stroke:#FFFFFF;stroke-width:2;stroke-linecap:round;stroke-linejoin:round;stroke-miterlimit:10;}
	.st16{fill:#1F3969;}
	.st17{fill:none;stroke:#FFFFFF;stroke-width:4;stroke-linecap:round;stroke-linejoin:round;stroke-miterlimit:10;}
	.st18{fill:none;stroke:#7BFFA0;stroke-width:4;stroke-linecap:round;stroke-linejoin:round;stroke-miterlimit:10;}
	.st19{fill:none;stroke:#9169FF;stroke-width:4;stroke-linecap:round;stroke-linejoin:round;stroke-miterlimit:10;}
	.st20{fill:none;stroke:#FFC47D;stroke-width:4;stroke-linecap:round;stroke-linejoin:round;stroke-miterlimit:10;}
	.st21{fill:none;stroke:#FF5757;stroke-width:4;stroke-linecap:round;stroke-linejoin:round;stroke-miterlimit:10;}
	.st22{fill:#FFA364;}
	.st23{fill:#FF5252;}
	.st24{fill:#6567C3;}
</style>
<g id="XMLID_34_">
	<path id="XMLID_223_" class="st0" d="M629.3,322.7H9c-5,0-9-4-9-9l0,0c0-5,4-9,9-9h620.3c5,0,9,4,9,9l0,0
		C638.3,318.7,634.3,322.7,629.3,322.7z"/>
	<g id="XMLID_19_">
		<g id="XMLID_163_">
			<path id="XMLID_178_" class="st1" d="M125.7,229.7c-9.6,0-17.3-7.8-17.3-17.3s7.8-17.3,17.3-17.3h98v34.7h-98V229.7z"/>
			<path id="XMLID_162_" class="st2" d="M229.4,235.7H125.7c-12.9,0-23.3-10.5-23.3-23.3l0,0c0-12.9,10.5-23.3,23.3-23.3h103.7
				L229.4,235.7L229.4,235.7z"/>
			<line id="XMLID_164_" class="st3" x1="119.3" y1="207" x2="223.7" y2="207"/>
			<line id="XMLID_173_" class="st3" x1="119.3" y1="217.6" x2="223.7" y2="217.6"/>
			<path id="XMLID_179_" class="st3" d="M125.7,229.7c-9.6,0-17.3-7.8-17.3-17.3s7.8-17.3,17.3-17.3h98v34.7h-98V229.7z"/>
			<path id="XMLID_161_" class="st4" d="M125.7,229.7c-9.6,0-17.3-7.8-17.3-17.3s7.8-17.3,17.3-17.3h99.7l4-6H125.7
				c-12.9,0-23.3,10.5-23.3,23.3l0,0c0,12.9,10.5,23.3,23.3,23.3h103.7l-4-6H125.7z"/>
			<path id="XMLID_182_" class="st3" d="M125.7,229.7c-9.6,0-17.3-7.8-17.3-17.3s7.8-17.3,17.3-17.3h99.7l4-6H125.7
				c-12.9,0-23.3,10.5-23.3,23.3l0,0c0,12.9,10.5,23.3,23.3,23.3h103.7l-4-6H125.7z"/>
			<rect id="XMLID_224_" x="188.7" y="189" class="st5" width="18.4" height="46.7"/>
		</g>
		<g id="XMLID_160_">
			<path id="XMLID_157_" class="st6" d="M218.7,274.2H28.8c-3.7,0-6.8-3-6.8-6.8v-25c0-3.7,3-6.8,6.8-6.8h189.9c3.7,0,6.8,3,6.8,6.8
				v25C225.5,271.2,222.5,274.2,218.7,274.2z"/>
			<g>
				<path class="st2" d="M80.1,256.2h-2.6v5.5h-1.7v-13.3h4.3c3.1,0,4.6,1.7,4.6,3.9C84.7,254.3,83.4,256.2,80.1,256.2z M80.1,254.7
					c2,0,2.8-0.9,2.8-2.4s-0.8-2.5-2.8-2.5h-2.6v4.9H80.1z"/>
				<path class="st2" d="M89.5,248.4h1.9l3.3,6.7l3.3-6.7h1.9l-4.3,8.3v5h-1.7v-5L89.5,248.4z"/>
				<path class="st2" d="M104.7,248.4h9v1.4h-3.6v11.9h-1.7v-11.9h-3.6L104.7,248.4L104.7,248.4z"/>
				<path class="st2" d="M128.2,255.7h-6.8v6h-1.7v-13.3h1.7v5.8h6.8v-5.8h1.7v13.3h-1.7V255.7z"/>
				<path class="st2" d="M142.7,261.8c-3.7,0-6.7-2.8-6.7-6.8s2.9-6.8,6.7-6.8c3.8,0,6.7,2.8,6.7,6.8
					C149.3,259,146.4,261.8,142.7,261.8z M142.7,260.3c2.8,0,4.9-2,4.9-5.3s-2.1-5.3-4.9-5.3s-4.9,2-4.9,5.3
					S139.9,260.3,142.7,260.3z"/>
				<path class="st2" d="M165.9,248.4v13.3h-1.7l-7-10.6v10.6h-1.7v-13.3h1.7l7,10.5v-10.5H165.9z"/>
			</g>
			<path id="XMLID_146_" class="st3" d="M218.7,274.2H28.8c-3.7,0-6.8-3-6.8-6.8v-25c0-3.7,3-6.8,6.8-6.8h189.9c3.7,0,6.8,3,6.8,6.8
				v25C225.5,271.2,222.5,274.2,218.7,274.2z"/>
		</g>
		<path id="XMLID_246_" class="st5" d="M218.7,235.7h-30v15c0,9.4,7.6,17.1,17.1,17.1h19.7c0-0.1,0-0.2,0-0.3v-25
			C225.5,238.7,222.5,235.7,218.7,235.7z"/>
		<path id="XMLID_35_" class="st1" d="M272.2,282h-220c1.3,3.2,2,7.2,2,11.4s-0.7,8.1-2,11.4h219.9c-1.3-3.2-2-7.2-2-11.4
			C270.2,289.1,270.9,285.2,272.2,282z"/>
		<rect id="XMLID_156_" x="46.3" y="275.9" class="st7" width="231.9" height="6"/>
		<rect id="XMLID_32_" x="46.3" y="275.9" class="st3" width="231.9" height="6"/>
		<rect id="XMLID_147_" x="46.3" y="304.7" class="st8" width="231.9" height="6"/>
		<rect id="XMLID_39_" x="46.3" y="304.7" class="st7" width="231.9" height="6"/>
		<rect id="XMLID_37_" x="46.3" y="304.7" class="st3" width="231.9" height="6"/>
		<path id="XMLID_69_" class="st9" d="M393.4,289.4l-3-33.7H341l-3,33.7c-0.7,7.8-5.4,15.3-12.8,21.3v0.1h81v-0.1
			C398.8,304.7,394.1,297.2,393.4,289.4z"/>
		<polygon id="XMLID_33_" class="st5" points="341,255.7 339.2,275.9 392.2,275.9 390.4,255.7 		"/>
		<path id="XMLID_10_" class="st3" d="M393.4,289.4l-3-33.7H341l-3,33.7c-0.7,7.8-5.4,15.3-12.8,21.3v0.1h81v-0.1
			C398.8,304.7,394.1,297.2,393.4,289.4z"/>
		<path id="XMLID_13_" class="st2" d="M523.7,260.7h-316c-6.6,0-12-5.4-12-12v-206c0-6.6,5.4-12,12-12h316c6.6,0,12,5.4,12,12v206
			C535.7,255.4,530.3,260.7,523.7,260.7z"/>
		<path id="XMLID_63_" class="st9" d="M523.7,260.7h-316c-6.6,0-12-5.4-12-12v-206c0-6.6,5.4-12,12-12h316c6.6,0,12,5.4,12,12v206
			C535.7,255.4,530.3,260.7,523.7,260.7z"/>
		<path id="XMLID_4_" class="st3" d="M523.7,260.7h-316c-6.6,0-12-5.4-12-12v-206c0-6.6,5.4-12,12-12h316c6.6,0,12,5.4,12,12v206
			C535.7,255.4,530.3,260.7,523.7,260.7z"/>
		<rect id="XMLID_68_" x="212.8" y="47.7" class="st8" width="306" height="174.6"/>
		<path id="XMLID_197_" class="st5" d="M223.7,30.7v138.6c0,4.4,3.6,8,8,8h189.1c4.4,0,8-3.6,8-8V30.7H223.7z"/>
		<rect id="XMLID_11_" x="212.8" y="47.7" class="st3" width="306" height="174.6"/>
		<line id="XMLID_9_" class="st3" x1="352.3" y1="241.4" x2="379.2" y2="241.4"/>
		<path id="XMLID_15_" class="st10" d="M429.8,166.3H240.7c-4.4,0-8-3.6-8-8V10.1c0-4.4,3.6-8,8-8h189.1c4.4,0,8,3.6,8,8v148.3
			C437.8,162.8,434.2,166.3,429.8,166.3z"/>
		<path id="XMLID_17_" class="st3" d="M437.8,21.5H232.7V10c0-4.4,3.6-8,8-8h189.1c4.4,0,8,3.6,8,8V21.5z"/>
		<path id="XMLID_23_" class="st11" d="M437.8,25.3H232.7V10c0-4.4,3.6-8,8-8h189.1c4.4,0,8,3.6,8,8V25.3z"/>
		<path id="XMLID_18_" class="st3" d="M437.8,25.3H232.7V10c0-4.4,3.6-8,8-8h189.1c4.4,0,8,3.6,8,8V25.3z"/>
		<path id="XMLID_20_" class="st3" d="M437.8,25.3H232.7V10c0-4.4,3.6-8,8-8h189.1c4.4,0,8,3.6,8,8V25.3z"/>
		<path id="XMLID_12_" class="st3" d="M429.8,166.3H240.7c-4.4,0-8-3.6-8-8V10.1c0-4.4,3.6-8,8-8h189.1c4.4,0,8,3.6,8,8v148.3
			C437.8,162.8,434.2,166.3,429.8,166.3z"/>
		<g id="XMLID_72_">
			<path id="XMLID_7_" class="st5" d="M528.5,201.7h-116c-4.4,0-8-3.6-8-8V70.8c0-4.4,3.6-8,8-8h116c4.4,0,8,3.6,8,8v122.9
				C536.5,198.2,532.9,201.7,528.5,201.7z"/>
			<path id="XMLID_16_" class="st12" d="M536.5,194.7h-116c-4.4,0-8-3.6-8-8V63.8c0-4.4,3.6-8,8-8h116c4.4,0,8,3.6,8,8v122.9
				C544.5,191.2,540.9,194.7,536.5,194.7z"/>
			<path id="XMLID_14_" class="st3" d="M536.5,194.7h-116c-4.4,0-8-3.6-8-8V63.8c0-4.4,3.6-8,8-8h116c4.4,0,8,3.6,8,8v122.9
				C544.5,191.2,540.9,194.7,536.5,194.7z"/>
			<path id="XMLID_75_" class="st13" d="M519.2,93.9h-81.6c-2.9,0-5.2-2.3-5.2-5.2v-7.8c0-2.9,2.3-5.2,5.2-5.2h81.6
				c2.9,0,5.2,2.3,5.2,5.2v7.8C524.4,91.6,522.1,93.9,519.2,93.9z"/>
			<g id="XMLID_143_" class="st14">
				<path id="XMLID_78_" class="st15" d="M483.4,123.2h-45.6c-2.9,0-5.2-2.3-5.2-5.2v-7.8c0-2.9,2.3-5.2,5.2-5.2h45.6
					c2.9,0,5.2,2.3,5.2,5.2v7.8C488.5,120.9,486.2,123.2,483.4,123.2z"/>
				<path id="XMLID_79_" class="st15" d="M519.3,123.2h-17.7c-2.9,0-5.2-2.3-5.2-5.2v-7.8c0-2.9,2.3-5.2,5.2-5.2h17.7
					c2.9,0,5.2,2.3,5.2,5.2v7.8C524.5,120.9,522.2,123.2,519.3,123.2z"/>
			</g>
			<g id="XMLID_76_">
				<line id="XMLID_135_" class="st15" x1="432.5" y1="153.6" x2="524.4" y2="153.6"/>
				<line id="XMLID_136_" class="st15" x1="432.5" y1="164.4" x2="524.4" y2="164.4"/>
				<line id="XMLID_138_" class="st15" x1="432.5" y1="175.2" x2="488.5" y2="175.2"/>
			</g>
		</g>
		<circle id="XMLID_24_" class="st16" cx="252.8" cy="13.7" r="4"/>
		<circle id="XMLID_28_" class="st16" cx="266.7" cy="13.7" r="4"/>
		<circle id="XMLID_38_" class="st16" cx="280.6" cy="13.7" r="4"/>
		<g id="XMLID_61_">
			<line id="XMLID_54_" class="st17" x1="350.5" y1="43.8" x2="363.5" y2="43.8"/>
			<line id="XMLID_66_" class="st18" x1="284.6" y1="43.8" x2="340.9" y2="43.8"/>
			<line id="XMLID_29_" class="st19" x1="256.8" y1="43.8" x2="276.6" y2="43.8"/>
		</g>
		<g id="XMLID_42_">
			<line id="XMLID_62_" class="st19" x1="282.6" y1="142.3" x2="325.6" y2="142.3"/>
			<line id="XMLID_30_" class="st18" x1="256.8" y1="142.3" x2="270.7" y2="142.3"/>
		</g>
		<g id="XMLID_27_">
			<line id="XMLID_60_" class="st17" x1="340.9" y1="56.1" x2="349" y2="56.1"/>
			<line id="XMLID_45_" class="st19" x1="304.1" y1="56.1" x2="331.3" y2="56.1"/>
			<line id="XMLID_47_" class="st20" x1="266.7" y1="56.1" x2="294.4" y2="56.1"/>
		</g>
		<g id="XMLID_49_">
			<line id="XMLID_59_" class="st17" x1="309.6" y1="68.4" x2="333.5" y2="68.4"/>
			<line id="XMLID_50_" class="st21" x1="279.6" y1="68.4" x2="302.1" y2="68.4"/>
		</g>
		<g id="XMLID_65_">
			<line id="XMLID_58_" class="st17" x1="312.8" y1="80.7" x2="317.7" y2="80.7"/>
			<line id="XMLID_70_" class="st19" x1="293" y1="80.7" x2="304.1" y2="80.7"/>
			<line id="XMLID_67_" class="st18" x1="266.7" y1="80.7" x2="284.6" y2="80.7"/>
		</g>
		<g id="XMLID_73_">
			<line id="XMLID_77_" class="st20" x1="305.1" y1="93.1" x2="337" y2="93.1"/>
			<line id="XMLID_74_" class="st21" x1="266.7" y1="93.1" x2="295.3" y2="93.1"/>
		</g>
		<g id="XMLID_80_">
			<line id="XMLID_64_" class="st19" x1="342" y1="105.4" x2="359.3" y2="105.4"/>
			<line id="XMLID_84_" class="st21" x1="305.1" y1="105.4" x2="332.8" y2="105.4"/>
			<line id="XMLID_81_" class="st18" x1="279.6" y1="105.4" x2="295.3" y2="105.4"/>
		</g>
		<g id="XMLID_87_">
			<line id="XMLID_95_" class="st17" x1="317.7" y1="117.7" x2="332.8" y2="117.7"/>
			<line id="XMLID_90_" class="st19" x1="279.6" y1="117.7" x2="307.3" y2="117.7"/>
		</g>
		<g id="XMLID_98_">
			<line id="XMLID_71_" class="st17" x1="357" y1="130" x2="374.3" y2="130"/>
			<line id="XMLID_102_" class="st20" x1="304.1" y1="130" x2="347.6" y2="130"/>
			<line id="XMLID_99_" class="st17" x1="266.7" y1="130" x2="294.4" y2="130"/>
		</g>
		<line id="XMLID_145_" class="st3" x1="54.7" y1="288.9" x2="270.2" y2="288.9"/>
		<line id="XMLID_151_" class="st3" x1="54.7" y1="296.9" x2="270.2" y2="296.9"/>
		<path id="XMLID_158_" class="st3" d="M272.2,282h-220c1.3,3.2,2,7.2,2,11.4s-0.7,8.1-2,11.4h219.9c-1.3-3.2-2-7.2-2-11.4
			C270.2,289.1,270.9,285.2,272.2,282z"/>
	</g>
	<g id="XMLID_222_">
		<g id="XMLID_174_">
			
				<rect id="XMLID_177_" x="562.6" y="200.8" transform="matrix(0.9932 -0.1166 0.1166 0.9932 -23.7739 67.7881)" class="st22" width="9.8" height="72.6"/>
			
				<rect id="XMLID_31_" x="558.8" y="201.1" transform="matrix(0.9932 -0.1166 0.1166 0.9932 -20.0334 67.1261)" class="st12" width="9.8" height="7.4"/>
			
				<rect id="XMLID_217_" x="558.8" y="201.1" transform="matrix(0.9932 -0.1166 0.1166 0.9932 -20.0334 67.1261)" class="st3" width="9.8" height="7.4"/>
			
				<rect id="XMLID_22_" x="562.6" y="200.8" transform="matrix(0.9932 -0.1166 0.1166 0.9932 -23.7739 67.7881)" class="st3" width="9.8" height="72.6"/>
		</g>
		<g id="XMLID_189_">
			
				<rect id="XMLID_218_" x="549.7" y="245.9" transform="matrix(0.1081 -0.9941 0.9941 0.1081 273.3627 806.2939)" class="st23" width="72.6" height="9.8"/>
			
				<rect id="XMLID_214_" x="549.7" y="245.9" transform="matrix(0.1081 -0.9941 0.9941 0.1081 273.3627 806.2939)" class="st3" width="72.6" height="9.8"/>
			
				<rect id="XMLID_220_" x="585.9" y="213.5" transform="matrix(0.1081 -0.9941 0.9941 0.1081 308.771 780.9802)" class="st10" width="7.4" height="9.8"/>
			
				<rect id="XMLID_211_" x="585.9" y="213.5" transform="matrix(0.1081 -0.9941 0.9941 0.1081 308.771 780.9802)" class="st3" width="7.4" height="9.8"/>
		</g>
		<polygon id="XMLID_26_" class="st24" points="600.9,311 561.6,311 555.2,250.8 607.3,250.8 		"/>
		<polygon id="XMLID_233_" class="st24" points="555.2,250.8 555.3,251.9 595,251.9 588.7,311 600.9,311 607.3,250.8 		"/>
		<polygon id="XMLID_21_" class="st3" points="600.9,311 561.6,311 555.2,250.8 607.3,250.8 		"/>
	</g>
</g>
</svg>
