<?xml version="1.0" encoding="utf-8"?>
<!-- Generator: Adobe Illustrator 24.0.3, SVG Export Plug-In . SVG Version: 6.00 Build 0)  -->
<!DOCTYPE svg PUBLIC "-//W3C//DTD SVG 1.1//EN" "http://www.w3.org/Graphics/SVG/1.1/DTD/svg11.dtd" [
	<!ENTITY ns_extend "http://ns.adobe.com/Extensibility/1.0/">
	<!ENTITY ns_ai "http://ns.adobe.com/AdobeIllustrator/10.0/">
	<!ENTITY ns_graphs "http://ns.adobe.com/Graphs/1.0/">
	<!ENTITY ns_vars "http://ns.adobe.com/Variables/1.0/">
	<!ENTITY ns_imrep "http://ns.adobe.com/ImageReplacement/1.0/">
	<!ENTITY ns_sfw "http://ns.adobe.com/SaveForWeb/1.0/">
	<!ENTITY ns_custom "http://ns.adobe.com/GenericCustomNamespace/1.0/">
	<!ENTITY ns_adobe_xpath "http://ns.adobe.com/XPath/1.0/">
]>
<svg version="1.1" id="Layer_1" xmlns:x="&ns_extend;" xmlns:i="&ns_ai;" xmlns:graph="&ns_graphs;"
	 xmlns="http://www.w3.org/2000/svg" xmlns:xlink="http://www.w3.org/1999/xlink" x="0px" y="0px" viewBox="0 0 43.8 40.5"
	 style="enable-background:new 0 0 43.8 40.5;" xml:space="preserve">
<style type="text/css">
	.st0{fill:#AAD4FF;stroke:url(#path2160_1_);}
	.st1{fill:none;stroke:#000000;}
	.st2{fill:none;stroke:#000000;stroke-width:1.546;}
	.st3{fill:none;stroke:#000000;stroke-width:1.804;}
</style>
<metadata>
	<sfw  xmlns="&ns_sfw;">
		<slices></slices>
		<sliceSourceBounds  bottomLeftOrigin="true" height="40.5" width="43.8" x="2.8" y="5.8"></sliceSourceBounds>
	</sfw>
</metadata>
<g>
	
		<linearGradient id="path2160_1_" gradientUnits="userSpaceOnUse" x1="-644.2045" y1="396.7167" x2="-643.6879" y2="396.7167" gradientTransform="matrix(42.751 0 0 -39.4922 27552.5586 15687.4619)">
		<stop  offset="0" style="stop-color:#000000"/>
		<stop  offset="1" style="stop-color:#000000;stop-opacity:0"/>
	</linearGradient>
	<path id="path2160" class="st0" d="M43.3,20.2c0,10.9-9.6,19.7-21.4,19.7S0.5,31.2,0.5,20.2S10.1,0.5,21.9,0.5S43.3,9.3,43.3,20.2z
		"/>
	<g id="g3194" transform="matrix(0.675987 0 0 0.886672 -48.0919 -194.716)">
		<path id="rect3163" d="M87,234.4h2.8c0.5,0,0.9,0.4,0.9,0.9v15.2c0,0.5-0.4,0.9-0.9,0.9H87c-0.5,0-0.9-0.4-0.9-0.9v-15.2
			C86.1,234.8,86.5,234.4,87,234.4z"/>
		<path id="rect3165" d="M92.8,234.4h2.8c0.5,0,9.7-5,9.7-4.5l0.1,25.8c0,0.5-9.3-4.3-9.8-4.3h-2.8c-0.5,0-0.9-0.4-0.9-0.9v-15.2
			C92,234.8,92.4,234.4,92.8,234.4L92.8,234.4z"/>
		<g>
			<path id="path3170" class="st1" d="M108.5,235.7c3.5,5.8,2.4,10,0,13.7"/>
			<path id="path3172" class="st2" d="M111,233c5.7,8.3,4,14.4,0,19.8"/>
			<path id="path3174" class="st3" d="M114.9,231c6.5,10,4.5,17.2,0,23.6"/>
		</g>
	</g>
</g>
</svg>
