<?xml version="1.0" encoding="iso-8859-1"?>
<!-- Uploaded to: SVG Repo, www.svgrepo.com, Generator: SVG Repo Mixer Tools -->
<svg fill="#000000" height="800px" width="800px" version="1.1" id="Layer_1" xmlns="http://www.w3.org/2000/svg" xmlns:xlink="http://www.w3.org/1999/xlink" 
	 viewBox="0 0 512 512" xml:space="preserve">
<g>
	<g>
		<path d="M477.166,194.626h-26.54c-19.818,0-35.94-16.122-35.94-35.94v-17.693C414.687,63.249,351.438,0,273.693,0h-132.7
			C63.249,0,0,63.249,0,140.994v185.78c0,4.581,3.713,8.294,8.294,8.294c4.58,0,8.294-3.712,8.294-8.294v-185.78
			c0-68.597,55.808-124.406,124.406-124.406h132.7c68.597,0,124.406,55.809,124.406,124.406v17.693
			c0,28.963,23.564,52.527,52.527,52.527h26.54c10.062,0,18.246,8.184,18.246,18.246v150.393
			c0,63.719-51.84,115.559-115.559,115.559H132.147c-63.72,0-115.559-51.84-115.559-115.559V362.16c0-4.581-3.713-8.294-8.294-8.294
			c-4.58,0-8.294,3.712-8.294,8.294v17.693C0,452.72,59.28,512,132.147,512h247.706C452.72,512,512,452.72,512,379.853V229.46
			C512,210.253,496.373,194.626,477.166,194.626z"/>
	</g>
</g>
<g>
	<g>
		<path d="M264.847,132.7h-106.16c-19.207,0-34.834,15.627-34.834,34.834c0,19.207,15.626,34.834,34.834,34.834h106.16
			c19.207,0,34.834-15.627,34.834-34.834C299.68,148.326,284.054,132.7,264.847,132.7z M264.847,185.78h-106.16
			c-10.061,0-18.246-8.184-18.246-18.246c0-10.062,8.185-18.246,18.246-18.246h106.16c10.062,0,18.246,8.184,18.246,18.246
			C283.093,177.595,274.909,185.78,264.847,185.78z"/>
	</g>
</g>
<g>
	<g>
		<path d="M344.466,309.633h-44.233c-4.581,0-8.294,3.712-8.294,8.294c0,4.581,3.712,8.294,8.294,8.294h44.233
			c10.062,0,18.246,8.184,18.246,18.246c0,10.062-8.184,18.246-18.246,18.246h-185.78c-10.061,0-18.246-8.184-18.246-18.246
			c0-10.062,8.185-18.246,18.246-18.246h106.16c4.581,0,8.294-3.712,8.294-8.294c0-4.581-3.712-8.294-8.294-8.294h-106.16
			c-19.207,0-34.834,15.627-34.834,34.834c0,19.207,15.626,34.834,34.834,34.834h185.78c19.207,0,34.834-15.627,34.834-34.834
			C379.3,325.259,363.674,309.633,344.466,309.633z"/>
	</g>
</g>
</svg>